#!OML:ASF E:/inclinewalkrobotboard/Project1/Captureday1/Session1/subject1.ASF
:FULLY-SPECIFIED
:DEGREES
88
root 0 0 0 1.7485325402558274 -10.378493781600213 0.8973336100198396
lowerback 0.16155051959763989 -1.6546203422139272 -2.5618216138171044
upperback -0.42651118332652826 -2.1553612818784806 1.936612942142799
thorax -0.42937941745402564 -1.0830945339521045 3.3852432786298485
lowerneck -26.15203114440505 -1.8737828287411604 -7.4173768665109785
upperneck 23.753260306797365 -0.08649310186559467 2.2932762876681982
head 12.308355382164173 -0.5598143166042564 2.200709518950319
rclavicle 2.0273816543247196E-15 1.0611769731330027E-15
rhumerus -34.04769737124081 -6.021677709728867 -79.02784902410308
rradius 29.020275193033463
rwrist 20.830717912555972
rhand -17.12953586613038 8.690840477206896
rfingers 7.125019999999957
rthumb 9.111487957620138 -21.040546098538453
lclavicle -4.980254467997963E-15 5.15720315649497E-15
lhumerus -25.124968903817564 -4.412159137106841 93.67686500374774
lradius 61.14538919906687
lwrist 2.768646374713718
lhand -27.94094878753345 20.02053224717547
lfingers 7.1250200000000055
lthumb -1.343108981695087 50.029103307456936
rfemur -7.6532300611640665 8.844734377247534 39.16552188487111
rtibia 13.787097872307303
rfoot -23.853473616476244 -9.512595595038059
rtoes 9.41159649155691
lfemur -17.85728421271864 2.812282116811047 -13.09526103887843
ltibia 58.75665749631057
lfoot 0.9724274230937286 -6.826039202862047
ltoes -9.520718692417375
89
root 0 0 0 1.7932003998071457 -10.2263189048727 0.9183205044363604
lowerback 0.18416101369564375 -1.5887116235932974 -2.6573692770502855
upperback -0.5032662025465178 -2.0663501540546614 1.9672817804926732
thorax -0.5214169645367095 -1.0338626871426913 3.4562446793325328
lowerneck -25.893867202329147 -1.8283440419456705 -7.461377066723765
upperneck 23.008030638044207 -0.09443565104673801 2.5488167804807036
head 11.990525805644229 -0.5125830255084147 2.2877955679484123
rclavicle 3.571836986268633E-15 -1.5015111214706892E-15
rhumerus -32.24432296267026 -3.9845498493351768 -80.69044568899251
rradius 30.397000504874367
rwrist 19.29621201373726
rhand -17.68915594749036 9.213173092273568
rfingers 7.125019999999929
rthumb 8.566225766447962 -20.53115487908423
lclavicle -9.550284310749133E-16 1.5057377102460894E-15
lhumerus -22.431425821936248 -3.457334102401028 92.3731220293493
lradius 62.65479528972483
lwrist 2.2834800620482634
lhand -28.45075805767141 21.174415305453767
lfingers 7.125020000000011
lthumb -1.8488546728435313 51.176579213333454
rfemur 1.160129189460056 8.826452914770599 38.9523140396884
rtibia 19.072024248576064
rfoot -23.535099014624418 -8.394840892203932
rtoes 7.723383392611522
lfemur -23.503773863246245 2.7675662769131986 -12.380284446919331
ltibia 56.73469040299715
lfoot -2.236595227032013 -4.081882827957431
ltoes -7.865196915135092
90
root 0 0 0 1.7999247645016636 -10.23251588972153 0.9253382578150595
lowerback 0.1317726011357243 -1.584062966127389 -2.663951479330953
upperback -0.5039353474794002 -2.065307034007725 1.9352636094952818
thorax -0.49557079777424906 -1.0309947830008772 3.4237229233445565
lowerneck -25.928666177050456 -1.8817451488632084 -7.4877622374743416
upperneck 23.217354074848625 -0.17749419123194643 2.586388727373676
head 12.070648882175325 -0.5525339033856126 2.296538465918832
rclavicle -2.1249569259488674E-15 -8.210204082305912E-16
rhumerus -31.280754260715735 -2.5257667205428187 -81.7094295089976
rradius 31.26263507493675
rwrist 18.618565144747848
rhand -18.073258483146176 9.327793091269392
rfingers 7.12501999999993
rthumb 8.194741338014875 -20.43236178080348
lclavicle -3.9180685779045634E-15 2.538680819077663E-15
lhumerus -22.43137283292155 -3.071178307617278 92.33899029095298
lradius 62.24275025210815
lwrist 2.3546140021439896
lhand -28.330469102094156 21.00488600969984
lfingers 7.12502000000001
lthumb -1.733558303416726 51.00821400880639
rfemur 4.413868217454652 8.680840520891609 38.70233039259107
rtibia 20.85465729640506
rfoot -24.077993097643258 -8.12830441039819
rtoes 5.227703989161261
lfemur -26.804225197249778 1.9880329874429865 -11.635260049824707
ltibia 51.17470106579478
lfoot -3.710993123968934 -1.9298774202837432
ltoes -6.695308222762291
91
root 0 0 0 1.807336887846007 -10.251056988781013 0.9347358427745309
lowerback 0.07776112549773861 -1.5824518976749902 -2.6741508174555646
upperback -0.5111283925916192 -2.0662238566436484 1.9070555011570796
thorax -0.47434404297939103 -1.029893266109553 3.3975577985734633
lowerneck -25.9702226727766 -1.9244349371871188 -7.515241655960916
upperneck 23.34573464274304 -0.24067781241685637 2.6221521415707914
head 12.122216303024834 -0.5815999891371949 2.305873541146142
rclavicle -3.3891230006922317E-15 -1.5007881169813476E-15
rhumerus -30.642268602037674 -1.053825073228305 -82.25311144955391
rradius 31.803243189979494
rwrist 18.18240843929394
rhand -18.399379327721604 9.363472910237585
rfingers 7.125019999999936
rthumb 7.879645159302435 -20.409418416166893
lclavicle -5.165279847648577E-15 2.4645735202585684E-15
lhumerus -22.236974959307144 -2.64105110891757 92.20703504456353
lradius 61.92887050843521
lwrist 2.3842543911133074
lhand -28.259843038144815 20.893483213801677
lfingers 7.125020000000008
lthumb -1.6701394547469972 50.8966361967542
rfemur 8.230806143853048 8.580047992614316 38.27248221433261
rtibia 22.77181328755075
rfoot -23.89962713661432 -7.465535117361753
rtoes 2.0337945800399457
lfemur -30.987320364427333 -0.015987914493220234 -10.475187709944874
ltibia 39.61040062366759
lfoot -4.893907119205861 1.1701680245297141
ltoes -4.388000223734076
